# xmcd CD database file generated by OrangeCD 5.2
#
# Track frame offsets:
#	150
#	18546
#	40530
#	58981
#	74693
#	94947
#	115056
#	136859
#	164595
#	183326
#	197242
#	216986
#	236133
#	251928
#	278723
#	296287
#	316746
#
# Disc length: 4544 seconds
#
# Revision: 0
# Processed by: cddbd v1.5.2PL0 Copyright (c) Steve Scherf et al.
# Submitted via: OrangeCD 5.2
#
DISCID=0711be11
DTITLE=Various Artist - Dance Easy   Volume 2
DYEAR=2006
DGENRE=Dance Easy
TTITLE0=Julio Iglesias and Diana Ross - All Of You
TTITLE1=Peter White - Just My Imagination
TTITLE2=Barry White - Can't Get Enough Of Your Love
TTITLE3=Simply Red - If You Don't Know Me By Now
TTITLE4=Lou Rawls - You'll Never Find Another Love Like Mine
TTITLE5=The Commodores - Easy
TTITLE6=B.B. King - Darlin' You Know I Love You
TTITLE7=The Manhattan Transfer and Ruth Brown - The Thrill Is Gone
TTITLE8=Kenny G and David Benoit - Don't Know Why
TTITLE9=Kenny G and Louis Armstrong - What A Wonderful World
TTITLE10=Grover Washington Jr. - Soulful Strut
TTITLE11=Julio Ingelias - Moonlight Lady
TTITLE12=Nat King Cole and & Natalie Cole - Unforegettable
TTITLE13=The Temptations - For Your Love   You Send Me (Medley)
TTITLE14=Luther Vandross - Never Too Much
TTITLE15=Sade - Hang On To Your Love
TTITLE16=George Benson - Breezin'
EXTD=
EXTT0=
EXTT1=
EXTT2=
EXTT3=
EXTT4=
EXTT5=
EXTT6=
EXTT7=
EXTT8=
EXTT9=
EXTT10=
EXTT11=
EXTT12=
EXTT13=
EXTT14=
EXTT15=
EXTT16=
PLAYORDER=
